<svg xmlns="http://www.w3.org/2000/svg" width="16" height="16" viewBox="0 0 16 16" fill="none">
  <rect width="16" height="16" rx="3" fill="url(#gradient)" />
  <g transform="translate(3.2 3.2) scale(0.4)">
    <path fill="none" stroke="white" stroke-width="2" stroke-linecap="round" stroke-linejoin="round" d="M4 14a1 1 0 0 1-.78-1.63l9.9-10.2a.5.5 0 0 1 .86.46l-1.92 6.02A1 1 0 0 0 13 10h7a1 1 0 0 1 .78 1.63l-9.9 10.2a.5.5 0 0 1-.86-.46l1.92-6.02A1 1 0 0 0 11 14z" />
  </g>
  <defs>
    <linearGradient id="gradient" x1="0" y1="0" x2="16" y2="16" gradientUnits="userSpaceOnUse">
      <stop stop-color="#4ade80" />
      <stop offset="1" stop-color="#16a34a" />
    </linearGradient>
  </defs>
</svg>
